HIERARCHY
ROOT Hips
{
	OFFSET 0.00000 0.00000 0.00000
	CHANNELS 6 Xposition Yposition Zposition Zrotation Yrotation Xrotation 
	JOINT RightUpLegDummy
	{
		OFFSET 0 0 0
		CHANNELS 3 Zrotation Yrotation Xrotation
		JOINT RightUpLeg
		{
			OFFSET -3.52197 -3.41223 0.04002
			CHANNELS 3 Zrotation Yrotation Xrotation
			JOINT RightLeg
			{
				OFFSET -1.06336 -17.58347 1.60435
				CHANNELS 3 Zrotation Yrotation Xrotation
				JOINT RightFoot
				{
					OFFSET -0.27018 -17.05419 -1.63900
					CHANNELS 3 Zrotation Yrotation Xrotation
					JOINT RightToes
					{
						OFFSET 0.00298 -1.73825 3.34613
						CHANNELS 3 Zrotation Yrotation Xrotation
						End Site
						{
							OFFSET 0.00480 -0.05416 3.85043
						}
					}
				}
			}
		}
	}
	JOINT SpineDummy
	{
		OFFSET 0 0 0
		CHANNELS 3 Zrotation Yrotation Xrotation
		JOINT Spine
		{
			OFFSET 0.00000 4.14613 0.00000
			CHANNELS 3 Zrotation Yrotation Xrotation
			JOINT Spine1
			{
				OFFSET 0.00000 10.93369 0.05002
				CHANNELS 3 Zrotation Yrotation Xrotation
				JOINT HEadDummy
				{
					OFFSET 0 0 0
					CHANNELS 3 Zrotation Yrotation Xrotation
					JOINT Head
					{
						OFFSET 0.00000 5.52901 0.00438
						CHANNELS 3 Zrotation Yrotation Xrotation
						End Site
						{
							OFFSET -0.11417 7.29012 0.98962
						}
					}
				}
				JOINT LeftShoulder1Dummy
				{
					OFFSET 0 0 0
					CHANNELS 3 Zrotation Yrotation Xrotation
					JOINT LeftShoulder1
					{
						OFFSET 3.53937 -0.14262 -0.08662
						CHANNELS 3 Zrotation Yrotation Xrotation
						JOINT LeftArm
						{
							OFFSET 4.04833 -0.00133 0.12681
							CHANNELS 3 Zrotation Yrotation Xrotation
							JOINT LeftForeArm
							{
								OFFSET 9.67557 0.03289 -0.56117
								CHANNELS 3 Zrotation Yrotation Xrotation
								JOINT LeftHand
								{
									OFFSET 10.17679 0.06873 0.40307
									CHANNELS 3 Zrotation Yrotation Xrotation
									End Site
									{
										OFFSET 6.59293 -0.21483 0.59213
									}
								}
							}
						}
					}
				}
				JOINT RightShoulderDummy
				{
					OFFSET 0 0 0
					CHANNELS 3 Zrotation Yrotation Xrotation
					JOINT RightShoulder
					{
						OFFSET -3.53937 -0.14262 -0.08660
						CHANNELS 3 Zrotation Yrotation Xrotation
						JOINT RightArm
						{
							OFFSET -4.04833 -0.00132 0.12683
							CHANNELS 3 Zrotation Yrotation Xrotation
							JOINT RightForeArm
							{
								OFFSET -9.67570 0.03289 -0.56114
								CHANNELS 3 Zrotation Yrotation Xrotation
								JOINT RightHand
								{
									OFFSET -10.17679 0.06867 0.40304
									CHANNELS 3 Zrotation Yrotation Xrotation
									End Site
									{
										OFFSET -6.54841 -0.21495 0.59212
									}
								}
							}
						}
					}
				}
			}
		}
	}
	JOINT LeftUpLegDummy
	{
		OFFSET 0 0 0
		CHANNELS 3 Zrotation Yrotation Xrotation
		JOINT LeftUpLeg
		{
			OFFSET 3.52197 -3.41223 0.04002
			CHANNELS 3 Zrotation Yrotation Xrotation
			JOINT LeftLeg
			{
				OFFSET 1.08359 -17.35354 1.60336
				CHANNELS 3 Zrotation Yrotation Xrotation
				JOINT LeftFoot
				{
					OFFSET 0.24986 -17.28405 -1.63802
					CHANNELS 3 Zrotation Yrotation Xrotation
					JOINT LeftToes
					{
						OFFSET -0.01575 -1.73822 3.34610
						CHANNELS 3 Zrotation Yrotation Xrotation
						End Site
						{
							OFFSET 0.03150 -0.01868 3.85031
						}
					}
				}
			}
		}
	}
}
MOTION
Frames: 11
Frame Time: 0.033333
-47.4545 38.3744 6.8855 -10.7491 -68.7184 15.0997 0.0000 0.0000 0.0000 -4.7516 12.3778 3.8856 23.5824 27.7171 40.8360 -12.3001 1.1735 -0.1089 -0.0000 -0.0000 0.0000 0.0000 0.0000 0.0000 26.2349 7.4182 6.9549 -19.7331 13.7369 10.1219 0.0000 0.0000 0.0000 13.1008 -24.5046 -3.1723 0.0000 0.0000 0.0000 -12.2993 -4.8100 1.9008 103.7671 -87.1557 -145.8075 4.6745 -80.5402 23.3508 20.2684 -2.9241 -1.3107 0.0000 0.0000 0.0000 -6.3806 1.4969 0.1653 -40.7046 30.2471 -59.2757 -4.4284 83.3062 17.3226 0.8126 12.0274 0.1980 0.0000 0.0000 0.0000 -1.1428 -5.0561 -36.4867 -24.8940 -46.1278 30.5958 0.5669 0.0657 12.4266 -0.0000 0.0000 -0.0000
-47.7547 38.3719 6.6279 -10.6192 -66.4365 15.2971 0.0000 0.0000 0.0000 -3.0164 8.9241 5.3356 20.0878 25.4335 38.4392 -13.9415 1.2704 -0.6961 -0.0000 -0.0000 0.0000 0.0000 0.0000 0.0000 22.3613 7.9651 6.0137 -15.3831 12.9561 10.9930 0.0000 0.0000 0.0000 17.1039 -26.0330 -6.8199 0.0000 0.0000 0.0000 -12.1328 -5.0551 1.9411 98.6746 -86.7259 -139.9380 6.5526 -82.8200 23.1163 21.3031 -1.9079 -1.1966 0.0000 0.0000 0.0000 -6.7260 -0.2012 0.0737 -39.6870 31.4383 -58.1614 -6.1441 85.1251 15.6133 -0.4169 12.3661 0.0234 0.0000 0.0000 0.0000 0.0830 -7.3879 -37.1676 -24.9859 -45.1128 31.3055 1.0851 -0.0441 11.8325 -0.0000 0.0000 -0.0000
-47.8341 38.4060 6.5892 -14.4769 -66.5187 19.2643 0.0000 0.0000 0.0000 -1.9854 7.3353 5.2837 19.9308 26.1320 37.5207 -13.0922 1.2256 -0.3453 -0.0000 -0.0000 0.0000 0.0000 0.0000 0.0000 20.4194 7.8137 6.8449 -12.2076 11.7145 9.0762 0.0000 0.0000 0.0000 15.2389 -25.9733 -5.8068 0.0000 0.0000 0.0000 -13.0699 -5.5176 2.1183 52.8023 -86.5250 -93.4245 9.6375 -85.0814 19.8290 22.1099 -0.9101 -1.0572 0.0000 0.0000 0.0000 -4.2780 -0.7632 0.1419 -40.1828 32.1737 -57.6165 -6.3380 85.4404 15.0977 -0.0192 11.2091 0.0715 0.0000 0.0000 0.0000 2.5950 -8.6092 -38.1408 -24.2328 -42.8342 31.5893 1.9471 -0.2161 11.6032 -0.0000 0.0000 -0.0000
-47.7461 38.5004 6.6854 -20.9631 -69.8557 25.7963 0.0000 0.0000 0.0000 -2.3242 8.6192 3.9266 21.3711 27.9197 37.8065 -10.3259 1.0019 0.1119 -0.0000 -0.0000 0.0000 0.0000 0.0000 0.0000 19.9736 7.6832 7.7848 -12.1221 11.6197 8.5016 0.0000 0.0000 0.0000 13.5872 -23.9811 -4.5918 0.0000 0.0000 0.0000 -12.7379 -4.8456 1.9502 41.2117 -84.6495 -81.8107 10.1362 -85.5563 18.5045 22.2239 -0.6957 -1.0218 0.0000 0.0000 0.0000 -2.6770 0.4813 0.2762 -39.0673 31.3913 -57.0088 -4.1490 83.3145 17.0962 1.1868 10.1509 0.2204 0.0000 0.0000 0.0000 4.7806 -7.2352 -38.4552 -22.5928 -40.4370 30.8450 2.3977 -0.3035 11.3027 -0.0000 0.0000 -0.0000
-47.6092 38.6226 6.7828 -29.0270 -74.3943 33.9656 0.0000 0.0000 0.0000 -3.5713 11.5923 2.2053 22.1724 28.7918 38.0911 -5.7637 0.5526 -0.1340 -0.0000 -0.0000 0.0000 0.0000 0.0000 0.0000 17.3792 7.8064 7.2926 -11.1862 11.5609 10.0331 0.0000 0.0000 0.0000 14.6652 -21.3847 -5.0242 0.0000 0.0000 0.0000 -11.6960 -3.7962 1.6505 47.3223 -82.7183 -88.1605 9.6170 -85.2571 19.2381 21.0817 -0.6680 -0.9633 0.0000 0.0000 0.0000 -3.4013 0.9146 0.2765 -33.4262 32.2056 -56.6621 -3.0755 80.3698 17.9965 1.5232 9.2291 0.2462 0.0000 0.0000 0.0000 5.8340 -4.5588 -37.7740 -20.4018 -38.7750 29.0106 1.9269 -0.2099 10.4793 -0.0000 0.0000 -0.0000
-47.4396 38.7321 6.8621 -40.4384 -78.3121 45.4871 0.0000 0.0000 0.0000 -5.0669 13.1548 0.4364 22.0059 28.3240 38.2884 0.2218 -0.0004 -1.0479 -0.0000 -0.0000 0.0000 0.0000 0.0000 0.0000 12.8662 7.7499 6.1933 -8.2098 10.5397 11.0129 0.0000 0.0000 0.0000 15.0594 -18.9394 -5.1580 0.0000 0.0000 0.0000 -11.5942 -3.6870 1.6223 41.6972 -80.0315 -82.0790 11.5769 -85.9343 18.0968 19.4056 -0.5498 -0.8652 0.0000 0.0000 0.0000 -3.2045 0.2915 0.2422 -26.9894 36.0307 -55.8619 -2.6996 79.1036 18.2836 0.4177 8.4196 0.1031 0.0000 0.0000 0.0000 6.4964 -2.1539 -36.7483 -18.0816 -37.4188 26.6895 0.9949 -0.0381 9.7006 -0.0000 0.0000 -0.0000
-47.2037 38.8214 6.9609 -61.7993 -81.0316 66.9209 0.0000 0.0000 0.0000 -6.3079 11.8358 -1.6828 21.3594 26.6067 39.0248 5.8492 -0.4369 -1.9093 -0.0000 -0.0000 0.0000 0.0000 0.0000 0.0000 9.3117 7.2215 5.5938 -5.8955 9.1898 10.8194 0.0000 0.0000 0.0000 13.2958 -16.0344 -5.1744 0.0000 0.0000 0.0000 -12.3739 -4.0404 1.7522 30.1313 -76.1226 -69.0202 21.3346 -87.7765 8.3344 18.4007 -0.3274 -0.7847 0.0000 0.0000 0.0000 -0.8815 0.3068 0.3428 -21.8392 40.6473 -53.2318 -2.6529 78.6230 18.7969 -0.9659 8.3531 -0.0524 0.0000 0.0000 0.0000 7.4661 0.0789 -35.9105 -16.0409 -35.7484 24.6933 0.2285 0.0980 9.5027 -0.0000 0.0000 -0.0000
-46.9214 38.9012 7.0768 -95.6611 -81.6654 100.5930 0.0000 0.0000 0.0000 -7.0852 8.8215 -3.7937 19.9607 23.7096 40.0732 9.2081 -0.6879 -2.0772 -0.0000 -0.0000 0.0000 0.0000 0.0000 0.0000 6.9948 6.5276 4.9297 -4.7418 8.1362 11.4727 0.0000 0.0000 0.0000 11.4868 -12.2353 -6.4410 0.0000 0.0000 0.0000 -13.3321 -3.6068 1.7329 22.5778 -71.4111 -59.6729 113.4075 -89.1601 -84.6274 18.0709 -0.2089 -0.7525 0.0000 0.0000 0.0000 1.3592 0.7714 0.4845 -14.6406 45.0126 -48.4429 -2.5796 77.1749 20.0745 -1.6096 8.0855 -0.1223 0.0000 0.0000 0.0000 8.5807 2.5712 -34.8914 -14.3285 -33.7377 23.2840 -0.2749 0.1860 9.3921 -0.0000 0.0000 -0.0000
-46.6481 38.9648 7.1876 -126.5870 -79.5122 130.8400 0.0000 0.0000 0.0000 -7.5288 5.7539 -5.0533 17.1096 19.7012 40.6842 9.5738 -0.7517 -1.7021 -0.0000 -0.0000 0.0000 0.0000 0.0000 0.0000 4.6882 6.0617 3.5777 -3.1585 7.2655 13.4205 0.0000 0.0000 0.0000 10.5426 -8.5918 -8.1588 0.0000 0.0000 0.0000 -14.3062 -2.6349 1.5886 16.0732 -66.7668 -51.8201 166.5293 -86.8982 -138.7397 17.7369 -0.0509 -0.7152 0.0000 0.0000 0.0000 3.3162 0.8109 0.5800 -3.9116 48.9068 -40.6929 -2.5713 75.6122 21.4749 -1.8436 6.6189 -0.1338 0.0000 0.0000 0.0000 9.6409 4.9243 -33.2425 -12.7435 -31.3952 22.2684 -0.5932 0.2317 8.8304 -0.0000 0.0000 -0.0000
-46.3958 38.9873 7.2859 -143.8720 -75.7464 147.0730 0.0000 0.0000 0.0000 -7.7971 3.8787 -5.2437 12.4559 14.3758 40.8891 6.1404 -0.4905 -1.4743 -0.0000 -0.0000 0.0000 0.0000 0.0000 0.0000 2.9027 5.8881 2.3559 -1.3600 6.6181 14.6552 0.0000 0.0000 0.0000 9.5832 -5.9305 -8.7327 0.0000 0.0000 0.0000 -15.1440 -2.1855 1.5398 6.2500 -61.7334 -41.2097 173.9230 -83.7936 -147.5481 17.1262 0.9663 -0.5443 0.0000 0.0000 0.0000 6.1898 0.9329 0.7350 8.2882 50.2505 -29.5890 -2.5944 74.9383 22.3799 -2.2580 5.0288 -0.1548 0.0000 0.0000 0.0000 10.5623 7.1819 -31.3077 -11.3957 -28.9184 21.8005 -0.6253 0.2234 8.1465 -0.0000 0.0000 -0.0000
-46.1251 38.9271 7.3495 -153.4920 -71.4675 155.6580 0.0000 0.0000 0.0000 -8.0055 4.0828 -4.9130 6.8233 8.3443 41.5706 -1.0806 0.1165 -1.3818 -0.0000 -0.0000 0.0000 0.0000 0.0000 0.0000 2.3626 5.8306 1.7912 -0.5675 6.3648 14.3529 0.0000 0.0000 0.0000 8.2156 -3.5899 -8.3094 0.0000 0.0000 0.0000 -15.7122 -2.3870 1.6219 -5.3977 -55.1327 -29.1782 176.6725 -80.2539 -152.4618 16.6109 2.7009 -0.2862 0.0000 0.0000 0.0000 9.3246 1.6131 1.0067 20.1638 47.4549 -17.7909 -2.6652 74.6016 23.1440 -2.6401 4.6196 -0.1798 0.0000 0.0000 0.0000 11.3092 9.6166 -29.8630 -10.5287 -26.5147 22.2704 -0.4425 0.1821 7.5720 -0.0000 0.0000 -0.0000
